<?xml version="1.0" standalone="no"?>
<!DOCTYPE svg PUBLIC "-//W3C//DTD SVG 20010904//EN"
 "http://www.w3.org/TR/2001/REC-SVG-20010904/DTD/svg10.dtd">
<svg version="1.0" xmlns="http://www.w3.org/2000/svg"
 width="1254.000000pt" height="1254.000000pt" viewBox="0 0 1254.000000 1254.000000"
 preserveAspectRatio="xMidYMid meet">

<g transform="translate(0.000000,1254.000000) scale(0.100000,-0.100000)"
fill="#C74F0B" stroke="none">
<path d="M7730 11064 c-258 -15 -689 -74 -915 -125 -189 -43 -383 -90 -450
-110 -224 -66 -474 -151 -660 -227 -60 -24 -130 -53 -155 -62 -101 -40 -424
-195 -555 -267 -243 -133 -589 -347 -715 -444 -19 -14 -79 -59 -133 -99 -306
-225 -692 -579 -936 -860 -41 -47 -88 -101 -105 -120 -75 -83 -249 -308 -355
-460 -471 -672 -773 -1446 -842 -2155 -17 -172 -2 -695 20 -695 4 0 38 41 77
92 240 319 556 616 929 869 269 184 527 325 860 473 83 37 159 71 170 76 116
54 483 183 755 265 69 21 152 46 185 56 97 30 593 153 815 202 337 75 484 105
860 177 113 22 250 49 305 60 55 11 201 41 325 66 374 77 437 90 635 138 179
44 244 61 460 122 114 33 416 131 475 155 25 10 97 38 160 63 181 70 471 208
580 275 25 16 86 52 135 81 296 174 596 441 794 705 75 100 171 252 171 272 0
7 -23 63 -52 125 -240 525 -686 918 -1305 1149 -349 129 -748 197 -1203 203
-146 2 -294 2 -330 0z"/>
<path d="M10737 8663 c-51 -69 -296 -307 -407 -394 -423 -334 -930 -592 -1595
-814 -466 -156 -971 -280 -1865 -460 -234 -47 -501 -101 -595 -120 -93 -20
-195 -40 -225 -46 -80 -15 -471 -104 -640 -146 -957 -234 -1718 -556 -2270
-962 -311 -228 -601 -523 -772 -786 -36 -56 -133 -233 -151 -276 -14 -35 -14
-39 12 -85 156 -285 440 -593 736 -799 425 -295 873 -457 1470 -532 108 -14
210 -18 445 -17 277 0 323 3 505 28 942 131 1851 516 2770 1174 617 442 1246
1050 1636 1580 40 53 84 113 98 132 44 57 164 238 226 340 391 638 624 1288
675 1888 13 153 10 334 -6 339 -7 2 -28 -18 -47 -44z"/>
<path d="M9130 2594 c-109 -20 -134 -28 -162 -52 -50 -42 -68 -93 -68 -198 0
-74 -3 -93 -16 -98 -9 -3 -54 -6 -100 -6 l-85 0 3 -42 3 -43 95 -5 95 -5 3
-342 2 -343 70 0 70 0 2 198 c2 108 3 262 3 342 l0 145 135 5 135 5 3 42 3 42
-138 3 -138 3 1 93 c3 145 25 165 187 164 l97 -2 0 39 c0 25 -5 41 -15 44 -21
9 -156 16 -185 11z"/>
<path d="M2577 2553 c-4 -3 -7 -251 -7 -551 l0 -544 353 4 c352 4 352 4 427
31 99 35 143 80 160 163 16 78 9 239 -13 281 -18 33 -81 76 -129 88 -16 4 -28
10 -28 14 0 3 22 20 48 36 60 39 75 70 80 176 10 199 -58 275 -264 299 -98 11
-617 14 -627 3z m542 -182 c65 -13 83 -36 89 -119 4 -66 3 -70 -26 -103 l-30
-34 -154 0 -153 0 -3 119 c-2 78 1 123 9 132 13 16 193 19 268 5z m97 -465
c33 -33 34 -36 34 -114 0 -135 -28 -151 -266 -152 -111 0 -133 2 -138 16 -3 9
-6 69 -6 134 0 65 3 125 6 134 5 14 30 16 171 16 l165 0 34 -34z"/>
<path d="M7025 2544 c-11 -3 -47 -12 -80 -20 -72 -18 -127 -54 -155 -100 -42
-72 -49 -249 -14 -334 45 -106 138 -139 399 -140 83 0 139 -5 154 -13 45 -23
65 -62 69 -137 9 -147 -19 -206 -105 -231 -64 -18 -246 -16 -391 5 -62 9 -115
16 -117 16 -3 0 -5 -27 -5 -60 0 -71 -15 -65 195 -80 105 -7 183 -7 260 0 138
13 171 22 224 61 62 44 82 98 89 228 6 133 -9 210 -49 256 -50 57 -91 67 -304
75 -215 7 -246 16 -271 75 -8 19 -14 67 -14 107 0 131 41 174 182 189 76 9
219 2 351 -17 l47 -7 0 56 c0 54 0 55 -32 61 -44 8 -408 16 -433 10z"/>
<path d="M9564 2488 c-4 -7 -8 -35 -9 -63 0 -27 -2 -80 -3 -117 l-2 -68 -71 0
-70 0 3 -42 3 -43 67 -3 66 -3 4 -277 c4 -302 7 -321 64 -373 46 -42 96 -54
229 -54 160 0 175 4 175 54 l0 38 -113 -1 c-199 -2 -197 -5 -197 348 l0 265
153 3 152 3 0 40 0 40 -150 5 -150 5 -5 125 -5 125 -67 3 c-45 2 -69 -1 -74
-10z"/>
<path d="M3901 2260 c-81 -23 -139 -64 -171 -120 -24 -44 -25 -52 -28 -264 -3
-182 -1 -226 12 -261 31 -80 119 -135 249 -155 85 -14 428 -8 482 8 28 8 30
12 33 63 2 34 -2 61 -11 73 -13 17 -17 18 -68 5 -34 -9 -109 -14 -199 -14
-129 0 -149 2 -185 22 -23 12 -46 32 -52 45 -16 31 -25 110 -15 125 6 9 77 13
277 15 l270 3 0 136 c-1 159 -15 208 -75 263 -63 57 -144 76 -314 75 -105 0
-157 -5 -205 -19z m291 -130 c54 -15 68 -41 68 -127 l0 -74 -152 3 -153 3 -3
67 c-3 78 7 104 51 123 38 17 137 19 189 5z"/>
<path d="M4800 2271 l-55 -6 0 -70 0 -70 35 2 c19 0 109 3 200 4 141 3 170 1
197 -14 17 -9 34 -25 37 -34 5 -17 9 -92 7 -120 -1 -10 -45 -13 -186 -13 -203
0 -257 -10 -308 -58 -41 -39 -50 -83 -46 -225 l4 -126 35 -36 c45 -46 80 -55
222 -55 146 0 209 13 254 52 l34 30 0 -30 c0 -18 6 -32 16 -36 9 -3 63 -6 120
-6 l105 0 -3 333 c-2 258 -6 338 -17 357 -25 47 -65 80 -120 102 -51 20 -75
22 -266 24 -115 1 -235 -1 -265 -5z m428 -506 c8 -156 -10 -175 -166 -175
-137 0 -147 8 -147 120 0 71 3 83 20 93 37 22 60 25 175 24 l115 -2 3 -60z"/>
<path d="M6100 2271 c-42 -13 -84 -38 -104 -60 -27 -30 -36 -26 -36 14 l0 35
-120 0 -120 0 0 -400 0 -401 123 3 122 3 5 307 c6 376 -4 351 153 356 91 3
106 1 127 -16 l25 -20 3 -316 3 -317 122 3 122 3 3 300 c3 326 -4 386 -45 436
-50 59 -94 73 -233 76 -69 1 -136 -1 -150 -6z"/>
<path d="M7932 2245 c-72 -20 -117 -57 -139 -113 -16 -41 -18 -80 -18 -292 0
-221 2 -248 19 -279 37 -69 81 -93 208 -111 107 -16 322 -8 395 14 127 40 148
95 147 386 -1 273 -18 330 -119 380 -48 24 -59 25 -245 27 -147 2 -208 -1
-248 -12z m409 -98 c49 -33 54 -63 54 -303 0 -193 -2 -224 -18 -247 -37 -56
-58 -62 -222 -62 -238 0 -237 -1 -233 331 l3 236 38 35 39 35 156 -4 c131 -2
161 -6 183 -21z"/>
</g>
</svg>
