<?xml version="1.0" standalone="no"?>
<!DOCTYPE svg PUBLIC "-//W3C//DTD SVG 20010904//EN"
 "http://www.w3.org/TR/2001/REC-SVG-20010904/DTD/svg10.dtd">
<svg version="1.0" xmlns="http://www.w3.org/2000/svg"
 width="1254.000000pt" height="1254.000000pt" viewBox="0 0 1254.000000 1254.000000"
 preserveAspectRatio="xMidYMid meet">

<g transform="translate(0.000000,1254.000000) scale(0.100000,-0.100000)"
fill="#FFFFFF" stroke="none">
<path d="M8225 11094 c-624 -37 -1009 -104 -1645 -284 -438 -124 -1062 -385
-1520 -638 -1291 -711 -2336 -1732 -2998 -2927 -68 -122 -240 -472 -270 -550
-11 -27 -39 -97 -62 -155 -166 -414 -286 -896 -326 -1314 -19 -205 -14 -607
10 -780 16 -111 22 -128 34 -110 4 5 40 59 81 119 611 902 1566 1600 2841
2077 151 57 413 147 500 173 41 13 152 46 245 74 366 112 984 269 1505 384 63
14 180 40 260 57 464 102 993 230 1140 275 25 7 97 28 160 45 396 110 815 256
1086 379 51 22 95 41 99 41 18 0 433 215 550 285 557 332 970 719 1234 1154
30 50 51 96 51 113 0 79 -141 380 -254 542 -317 454 -849 783 -1511 935 -172
40 -410 78 -570 91 -137 11 -538 20 -640 14z"/>
<path d="M11338 8492 c-25 -42 -320 -337 -433 -434 -654 -557 -1433 -944
-2545 -1266 -299 -87 -771 -205 -1265 -317 -88 -20 -205 -47 -260 -60 -55 -12
-156 -35 -225 -50 -358 -78 -899 -214 -1180 -298 -268 -79 -689 -219 -800
-266 -14 -5 -70 -28 -125 -50 -590 -233 -1117 -519 -1528 -829 -527 -397 -897
-824 -1139 -1317 -80 -162 -80 -157 -12 -289 124 -242 272 -445 474 -647 151
-152 269 -249 430 -354 96 -62 290 -171 358 -201 202 -88 282 -119 442 -167
159 -48 364 -88 585 -114 197 -22 247 -24 475 -20 451 9 745 55 1270 197 202
55 605 208 850 322 728 340 1374 772 2075 1387 160 141 593 574 736 736 386
439 702 866 958 1293 427 714 686 1349 822 2022 62 307 98 750 60 750 -4 0
-14 -13 -23 -28z"/>
</g>
</svg>
